<svg width="258" height="19" viewBox="0 0 258 19" fill="none" xmlns="http://www.w3.org/2000/svg">
<g clip-path="url(#clip0_19_115)">
<path d="M12.4167 13.3881C12.4167 11.948 11.9945 10.814 11.1501 9.98605C10.3058 9.14005 9.03919 8.43805 7.35046 7.88005C6.1015 7.48405 5.19557 7.08805 4.63269 6.69205C4.06978 6.27805 3.78833 5.73805 3.78833 5.07205C3.78833 4.82002 3.8411 4.56802 3.94664 4.31602C4.06978 4.04602 4.24569 3.81202 4.47438 3.61402C4.72065 3.39802 5.0373 3.22702 5.4243 3.10102C5.8113 2.97502 6.28626 2.91202 6.84917 2.91202C7.7463 2.91202 8.5203 3.02002 9.17117 3.23602C9.83962 3.45202 10.3234 3.64102 10.6224 3.80302C10.6576 3.83902 10.7016 3.84802 10.7543 3.83002C10.8071 3.81202 10.8423 3.77602 10.8599 3.72202L11.6515 1.23802C11.6867 1.14802 11.6603 1.08502 11.5723 1.04902C11.0622 0.779025 10.4201 0.554025 9.64612 0.374026C8.88971 0.176026 7.97499 0.0770264 6.90194 0.0770264C5.89926 0.0770264 4.99333 0.212025 4.18412 0.482025C3.39253 0.734025 2.70648 1.09402 2.12598 1.56202C1.56307 2.03002 1.12331 2.58802 0.80667 3.23602C0.507625 3.86602 0.358102 4.55903 0.358102 5.31505C0.358102 6.01705 0.481237 6.64705 0.727511 7.20505C0.991375 7.74505 1.35198 8.24005 1.80935 8.69005C2.26671 9.12205 2.81203 9.50905 3.44531 9.85105C4.09617 10.1751 4.81739 10.463 5.60901 10.715C6.7876 11.0931 7.64076 11.5071 8.16849 11.9571C8.69621 12.3891 8.96008 12.938 8.96008 13.604C8.96008 14.324 8.66098 14.909 8.06289 15.359C7.48239 15.809 6.65567 16.034 5.58262 16.034C4.68547 16.034 3.8323 15.9171 3.02312 15.6831C2.23153 15.4311 1.55428 15.125 0.991375 14.765C0.885829 14.7111 0.815461 14.7381 0.780279 14.8461L0.0150777 17.438C-0.0201041 17.51 0.00628349 17.573 0.0942379 17.6271C0.375692 17.7891 0.709915 17.951 1.09692 18.1131C1.48392 18.2751 1.9061 18.4191 2.36347 18.545C2.83842 18.653 3.32217 18.743 3.81471 18.8151C4.32485 18.8871 4.83498 18.923 5.34514 18.923C6.57651 18.923 7.64076 18.7701 8.53789 18.4641C9.43503 18.1401 10.1651 17.726 10.728 17.222C11.3085 16.7001 11.7306 16.1061 11.9945 15.4401C12.276 14.774 12.4167 14.09 12.4167 13.3881Z" fill="#7EAFFF"/>
<path d="M29.431 18.5991C29.5365 18.5991 29.5893 18.545 29.5893 18.437V12.875C29.5893 12.767 29.5365 12.713 29.431 12.713H27.8478C27.7775 12.713 27.7423 12.731 27.7423 12.767L27.6895 15.656H21.5151V0.53603C21.5151 0.446031 21.4623 0.401031 21.3568 0.401031H18.2696C18.164 0.401031 18.1113 0.446031 18.1113 0.53603V18.437C18.1113 18.545 18.164 18.5991 18.2696 18.5991H29.431Z" fill="#7EAFFF"/>
<path d="M37.8607 18.5991C37.9663 18.5991 38.019 18.545 38.019 18.437V0.53603C38.019 0.446031 37.9663 0.401031 37.8607 0.401031H34.7735C34.668 0.401031 34.6152 0.446031 34.6152 0.53603V18.437C34.6152 18.545 34.668 18.5991 34.7735 18.5991H37.8607Z" fill="#7EAFFF"/>
<path d="M61.2843 9.04107C61.2843 7.63706 61.0292 6.39507 60.5191 5.31507C60.0089 4.21705 59.3141 3.29005 58.4346 2.53405C56.6403 1.00405 53.9313 0.239044 50.3076 0.239044C49.2521 0.239044 48.2404 0.275044 47.2729 0.347044C46.3054 0.419044 45.4083 0.509045 44.5815 0.617045C44.4936 0.617045 44.4496 0.671045 44.4496 0.779045V18.3831C44.4496 18.4911 44.4936 18.5451 44.5815 18.5451C45.2148 18.6351 45.9184 18.6981 46.6924 18.7341C47.484 18.7701 48.4075 18.7881 49.4632 18.7881C51.3982 18.7881 53.1309 18.5631 54.6613 18.1131C56.1917 17.6451 57.4319 16.9611 58.3818 16.0611C59.2965 15.2151 60.0089 14.1981 60.5191 13.0101C61.0292 11.8221 61.2843 10.4991 61.2843 9.04107ZM57.6957 9.17607C57.6957 10.2201 57.5286 11.1651 57.1944 12.0111C56.8602 12.8571 56.3676 13.5771 55.7168 14.1711C55.0835 14.7651 54.2831 15.2241 53.3156 15.5481C52.3657 15.8541 51.2663 16.0071 50.0173 16.0071C49.5951 16.0071 49.1993 16.0071 48.8297 16.0071C48.4603 15.9891 48.1348 15.9621 47.8534 15.9261V3.20905C48.1524 3.13705 48.5131 3.08305 48.9355 3.04705C49.3576 3.01105 49.8766 2.99305 50.4923 2.99305C52.8494 2.99305 54.6349 3.52405 55.8487 4.58605C57.0801 5.64807 57.6957 7.17807 57.6957 9.17607Z" fill="#7EAFFF"/>
<path d="M69.9449 18.5991C70.0504 18.5991 70.1032 18.545 70.1032 18.437V0.53603C70.1032 0.446031 70.0504 0.401031 69.9449 0.401031H66.8577C66.7521 0.401031 66.6994 0.446031 66.6994 0.53603V18.437C66.6994 18.545 66.7521 18.5991 66.8577 18.5991H69.9449Z" fill="#7EAFFF"/>
<path d="M91.7586 18.5991C91.8641 18.5991 91.9169 18.545 91.9169 18.437V0.53603C91.9169 0.446031 91.8641 0.401031 91.7586 0.401031H88.8825C88.7769 0.401031 88.7241 0.446031 88.7241 0.53603V7.50205C88.7241 8.67205 88.7329 9.76105 88.7505 10.769C88.7681 11.759 88.8209 12.767 88.9089 13.793C88.4867 12.9471 88.0293 12.0921 87.5368 11.2281C87.0618 10.364 86.5165 9.47305 85.9008 8.55505L80.4652 0.482031C80.4476 0.464031 80.4212 0.446031 80.3861 0.428031C80.3685 0.410031 80.3597 0.401031 80.3597 0.401031H76.692C76.5864 0.401031 76.5336 0.446031 76.5336 0.53603V18.437C76.5336 18.545 76.5864 18.5991 76.692 18.5991H79.5681C79.6736 18.5991 79.7264 18.545 79.7264 18.437V11.255C79.7264 9.99505 79.7176 8.82505 79.7 7.74505C79.6824 6.64705 79.6472 5.54905 79.5945 4.45103C80.0518 5.40505 80.5708 6.36805 81.1513 7.34005C81.7318 8.31205 82.3298 9.27505 82.9455 10.229L88.3547 18.518C88.4075 18.5721 88.4515 18.5991 88.4867 18.5991H91.7586Z" fill="#7EAFFF"/>
<path d="M114.177 17.7621V8.66305C114.177 8.55505 114.124 8.50105 114.019 8.50105H107.37C107.264 8.50105 107.211 8.55505 107.211 8.66305V11.1201C107.211 11.2281 107.264 11.2821 107.37 11.2821H110.853V15.5211C110.571 15.6291 110.175 15.7281 109.665 15.8181C109.173 15.9081 108.583 15.953 107.897 15.953C106.824 15.953 105.857 15.791 104.995 15.467C104.15 15.143 103.429 14.6931 102.831 14.1171C102.233 13.541 101.776 12.857 101.459 12.0651C101.142 11.2731 100.984 10.4 100.984 9.44605C100.984 8.49205 101.151 7.62805 101.485 6.85405C101.82 6.06205 102.295 5.38705 102.91 4.82903C103.526 4.27103 104.265 3.83904 105.127 3.53304C106.006 3.22704 106.991 3.07404 108.082 3.07404C109.12 3.07404 109.991 3.16404 110.694 3.34404C111.415 3.50604 112.058 3.70404 112.62 3.93804C112.726 3.97404 112.788 3.93804 112.805 3.83004L113.544 1.34604C113.579 1.25604 113.544 1.19304 113.438 1.15704C112.981 0.959035 112.286 0.752035 111.354 0.536035C110.439 0.320037 109.375 0.212036 108.162 0.212036C106.473 0.212036 104.96 0.455036 103.623 0.941035C102.303 1.42704 101.178 2.10204 100.245 2.96604C99.3305 3.81204 98.6268 4.81104 98.1343 5.96305C97.6593 7.09705 97.4219 8.32105 97.4219 9.63505C97.4219 10.931 97.6506 12.1461 98.1079 13.2801C98.5653 14.4141 99.2073 15.3771 100.034 16.1691C101.899 17.9151 104.458 18.788 107.713 18.788C108.715 18.788 109.656 18.716 110.536 18.5721C111.415 18.4281 112.189 18.257 112.858 18.059C112.999 18.005 113.122 17.9781 113.227 17.9781C113.333 17.9781 113.447 17.969 113.57 17.951C113.711 17.951 113.87 17.9331 114.046 17.8971L114.177 17.7621Z" fill="#7EAFFF"/>
<path d="M138.883 5.82807C138.883 4.96405 138.707 4.19005 138.355 3.50605C138.004 2.80405 137.573 2.22805 137.063 1.77805C136.5 1.29205 135.761 0.914045 134.846 0.644045C133.949 0.374043 132.867 0.239044 131.601 0.239044C130.404 0.239044 129.375 0.275044 128.513 0.347044C127.651 0.419044 126.913 0.500045 126.297 0.590045C126.209 0.590045 126.165 0.644045 126.165 0.752045V18.4371C126.165 18.5451 126.218 18.5991 126.323 18.5991H129.384C129.49 18.5991 129.542 18.5451 129.542 18.4371V11.8491C129.789 11.9031 130.053 11.9391 130.334 11.9571C130.615 11.9571 130.932 11.9571 131.284 11.9571C132.55 11.9571 133.694 11.7951 134.714 11.4711C135.734 11.1471 136.596 10.6431 137.3 9.95907C137.81 9.47307 138.197 8.87906 138.461 8.17706C138.742 7.45706 138.883 6.67407 138.883 5.82807ZM135.532 5.93607C135.532 6.99806 135.154 7.81707 134.397 8.39307C133.659 8.95107 132.638 9.23007 131.337 9.23007C130.967 9.23007 130.633 9.22106 130.334 9.20306C130.053 9.18507 129.789 9.14007 129.542 9.06807V3.10105C129.753 3.06505 130.035 3.02905 130.387 2.99305C130.739 2.95705 131.152 2.93905 131.627 2.93905C132.19 2.93905 132.709 3.00205 133.184 3.12805C133.676 3.23605 134.09 3.41605 134.424 3.66805C134.776 3.90205 135.048 4.20805 135.242 4.58605C135.435 4.96405 135.532 5.41407 135.532 5.93607Z" fill="#4B69EA"/>
<path d="M159.594 10.4451V0.53603C159.594 0.446031 159.542 0.401031 159.436 0.401031H156.375C156.27 0.401031 156.217 0.446031 156.217 0.53603V10.5801C156.217 12.4521 155.839 13.847 155.082 14.765C154.326 15.6831 153.288 16.142 151.969 16.142C150.737 16.142 149.744 15.6831 148.987 14.765C148.248 13.847 147.879 12.4521 147.879 10.5801V0.53603C147.879 0.446031 147.826 0.401031 147.721 0.401031H144.633C144.528 0.401031 144.475 0.446031 144.475 0.53603V10.4451C144.475 11.975 144.66 13.2801 145.029 14.3601C145.399 15.4221 145.909 16.295 146.56 16.979C147.21 17.6451 147.984 18.1401 148.882 18.4641C149.779 18.7701 150.755 18.923 151.811 18.923C152.972 18.923 154.027 18.761 154.977 18.437C155.927 18.0951 156.745 17.5821 157.431 16.8981C158.117 16.2141 158.645 15.3411 159.014 14.279C159.401 13.199 159.594 11.9211 159.594 10.4451Z" fill="#4B69EA"/>
<path d="M179.803 18.032C179.873 17.996 179.909 17.9511 179.909 17.8971C179.926 17.8431 179.909 17.798 179.856 17.7621L177.507 15.71H169.565L179.592 2.37203V0.53603C179.592 0.446031 179.539 0.401031 179.434 0.401031H165.977C165.871 0.401031 165.818 0.446031 165.818 0.53603L165.686 3.12803C165.686 3.23603 165.739 3.29003 165.845 3.29003H175.053L164.921 16.628V18.437C164.921 18.545 164.974 18.5991 165.079 18.5991H178.431L179.803 18.032Z" fill="#4B69EA"/>
<path d="M198.912 18.032C198.982 17.996 199.017 17.9511 199.017 17.8971C199.035 17.8431 199.017 17.798 198.964 17.7621L196.616 15.71H188.674L198.701 2.37203V0.53603C198.701 0.446031 198.648 0.401031 198.542 0.401031H185.085C184.98 0.401031 184.927 0.446031 184.927 0.53603L184.795 3.12803C184.795 3.23603 184.848 3.29003 184.953 3.29003H194.162L184.03 16.628V18.437C184.03 18.545 184.083 18.5991 184.188 18.5991H197.54L198.912 18.032Z" fill="#4B69EA"/>
<path d="M257.87 13.311C257.87 11.871 257.448 10.737 256.603 9.909C255.759 9.063 254.493 8.361 252.804 7.803C251.555 7.407 250.649 7.011 250.086 6.615C249.523 6.201 249.242 5.661 249.242 4.995C249.242 4.743 249.294 4.491 249.4 4.239C249.523 3.969 249.699 3.735 249.928 3.537C250.174 3.321 250.491 3.15 250.878 3.024C251.265 2.898 251.74 2.835 252.303 2.835C253.2 2.835 253.974 2.943 254.624 3.159C255.293 3.375 255.777 3.564 256.076 3.726C256.111 3.762 256.155 3.771 256.208 3.753C256.26 3.735 256.296 3.699 256.313 3.645L257.105 1.161C257.14 1.071 257.114 1.008 257.026 0.972C256.516 0.702 255.873 0.477 255.099 0.297C254.343 0.099 253.428 0 252.355 0C251.353 0 250.447 0.134999 249.637 0.404999C248.846 0.657 248.16 1.017 247.579 1.485C247.016 1.953 246.577 2.511 246.26 3.159C245.961 3.789 245.811 4.482 245.811 5.238C245.811 5.94 245.935 6.57 246.181 7.128C246.445 7.668 246.805 8.163 247.263 8.613C247.72 9.045 248.265 9.432 248.899 9.774C249.55 10.098 250.271 10.386 251.062 10.638C252.241 11.016 253.094 11.43 253.622 11.88C254.15 12.312 254.413 12.861 254.413 13.527C254.413 14.247 254.114 14.832 253.516 15.282C252.936 15.732 252.109 15.957 251.036 15.957C250.139 15.957 249.286 15.84 248.476 15.606C247.685 15.354 247.008 15.048 246.445 14.688C246.339 14.634 246.269 14.661 246.234 14.769L245.468 17.361C245.433 17.433 245.46 17.496 245.548 17.55C245.829 17.712 246.163 17.874 246.55 18.036C246.937 18.198 247.359 18.342 247.817 18.468C248.292 18.576 248.776 18.666 249.268 18.738C249.778 18.81 250.288 18.846 250.798 18.846C252.03 18.846 253.094 18.693 253.991 18.387C254.888 18.063 255.618 17.649 256.181 17.145C256.762 16.623 257.184 16.029 257.448 15.363C257.729 14.697 257.87 14.013 257.87 13.311Z" fill="#4B69EA"/>
<path d="M207.85 0.5H203.452C203.182 0.5 202.963 0.723858 202.963 1V5.5C202.963 5.77614 203.182 6 203.452 6H207.85C208.12 6 208.338 5.77614 208.338 5.5V1C208.338 0.723858 208.12 0.5 207.85 0.5Z" fill="#4B69EA"/>
<path d="M214.202 0.5H209.804C209.534 0.5 209.316 0.723858 209.316 1V5.5C209.316 5.77614 209.534 6 209.804 6H214.202C214.472 6 214.691 5.77614 214.691 5.5V1C214.691 0.723858 214.472 0.5 214.202 0.5Z" fill="#7EAFFF"/>
<path d="M220.554 0.5H216.157C215.887 0.5 215.668 0.723858 215.668 1V5.5C215.668 5.77614 215.887 6 216.157 6H220.554C220.824 6 221.043 5.77614 221.043 5.5V1C221.043 0.723858 220.824 0.5 220.554 0.5Z" fill="#7EAFFF"/>
<path d="M207.85 7H203.452C203.182 7 202.963 7.22386 202.963 7.5V12C202.963 12.2761 203.182 12.5 203.452 12.5H207.85C208.12 12.5 208.338 12.2761 208.338 12V7.5C208.338 7.22386 208.12 7 207.85 7Z" fill="#4B69EA"/>
<path d="M214.202 7H209.804C209.534 7 209.316 7.22386 209.316 7.5V12C209.316 12.2761 209.534 12.5 209.804 12.5H214.202C214.472 12.5 214.691 12.2761 214.691 12V7.5C214.691 7.22386 214.472 7 214.202 7Z" fill="#7EAFFF"/>
<path d="M220.554 7H216.157C215.887 7 215.668 7.22386 215.668 7.5V12C215.668 12.2761 215.887 12.5 216.157 12.5H220.554C220.824 12.5 221.043 12.2761 221.043 12V7.5C221.043 7.22386 220.824 7 220.554 7Z" fill="#7EAFFF"/>
<path d="M207.85 13.5H203.452C203.182 13.5 202.963 13.7239 202.963 14V18.5C202.963 18.7761 203.182 19 203.452 19H207.85C208.12 19 208.338 18.7761 208.338 18.5V14C208.338 13.7239 208.12 13.5 207.85 13.5Z" fill="#4B69EA"/>
<path d="M214.202 13.5H209.804C209.534 13.5 209.316 13.7239 209.316 14V18.5C209.316 18.7761 209.534 19 209.804 19H214.202C214.472 19 214.691 18.7761 214.691 18.5V14C214.691 13.7239 214.472 13.5 214.202 13.5Z" fill="#4B69EA"/>
<path d="M220.554 13.5H216.157C215.887 13.5 215.668 13.7239 215.668 14V18.5C215.668 18.7761 215.887 19 216.157 19H220.554C220.824 19 221.043 18.7761 221.043 18.5V14C221.043 13.7239 220.824 13.5 220.554 13.5Z" fill="#4B69EA"/>
<path d="M228.686 18.621C228.792 18.621 228.845 18.5669 228.845 18.459V0.557975C228.845 0.467974 228.792 0.422974 228.686 0.422974H225.599C225.493 0.422974 225.441 0.467974 225.441 0.557975V18.459C225.441 18.5669 225.493 18.621 225.599 18.621H228.686Z" fill="#4B69EA"/>
<path d="M240.323 10.8119C240.344 10.7399 240.323 7.92294 240.323 7.92294H230.085L229.436 7.92299H228.947L228.459 7.92294C228.703 7.92294 228.214 7.92294 227.481 7.92294H226.496H225.441V8.84094V10.6499C225.441 10.7579 225.493 10.8119 225.599 10.8119H240.323Z" fill="#4B69EA"/>
<path d="M240.323 18.2449C240.393 18.2089 240.428 18.1639 240.428 18.1099C240.446 18.0559 240.428 18.0109 240.375 17.9749L238.027 15.9229H230.085L229.436 15.923H228.947L228.459 15.9229C228.703 15.9229 228.214 15.9229 227.481 15.9229H226.496H225.441V16.8409V18.6499C225.441 18.7579 225.493 18.8119 225.599 18.8119H238.951L240.323 18.2449Z" fill="#4B69EA"/>
<path d="M240.323 3.31198C240.344 3.23997 240.323 0.422974 240.323 0.422974H230.085L229.436 0.423004H228.947L228.459 0.422974C228.703 0.422974 228.214 0.422974 227.481 0.422974H226.496H225.538C225.484 0.422974 225.441 0.467745 225.441 0.522975V1.34098V3.14998C225.441 3.25798 225.493 3.31198 225.599 3.31198H240.323Z" fill="#4B69EA"/>
</g>
<defs>
<clipPath id="clip0_19_115">
<rect width="258" height="19" fill="white"/>
</clipPath>
</defs>
</svg>
